<svg width="70" height="25" viewBox="0 0 70 25" fill="none" xmlns="http://www.w3.org/2000/svg">
<path d="M5.48267 24.6875C4.81717 24.6875 4.2643 24.6094 3.82405 24.4531C3.38379 24.3073 3.03569 24.1406 2.77973 23.9531C2.52377 23.7656 2.3446 23.5885 2.24221 23.4219C2.13983 23.2448 2.08864 23.1302 2.08864 23.0781C2.08864 22.8906 2.12959 22.6927 2.2115 22.4844C2.2934 22.2656 2.39579 22.0677 2.51865 21.8906C2.64151 21.7031 2.77461 21.5469 2.91795 21.4219C3.06128 21.2969 3.18926 21.2344 3.30189 21.2344C3.44522 21.2344 3.56297 21.3281 3.65511 21.5156C3.67559 21.5365 3.72678 21.5885 3.80869 21.6719C3.8906 21.7552 4.00322 21.8438 4.14656 21.9375C4.30013 22.0208 4.48442 22.099 4.69943 22.1719C4.92467 22.2448 5.18575 22.2812 5.48267 22.2812C6.12769 22.2812 6.65497 22.0833 7.0645 21.6875C7.47404 21.2812 7.67881 20.7344 7.67881 20.0469C7.67881 19.5677 7.56618 19.1406 7.34094 18.7656C7.12593 18.3906 6.83926 18.0417 6.48091 17.7188C6.12257 17.3958 5.71303 17.0833 5.2523 16.7812C4.79157 16.4688 4.32061 16.1458 3.8394 15.8125C3.3582 15.4792 2.88723 15.1198 2.4265 14.7344C1.96577 14.349 1.55624 13.9062 1.19789 13.4062C0.839549 12.9062 0.547755 12.3438 0.32251 11.7188C0.107503 11.0833 0 10.3594 0 9.54688C0 8.84896 0.117742 8.14583 0.353225 7.4375C0.588708 6.72917 0.911218 6.05729 1.32075 5.42188C1.74053 4.77604 2.23197 4.17708 2.79509 3.625C3.3582 3.0625 3.96738 2.57812 4.62264 2.17188C5.2779 1.75521 5.95875 1.43229 6.6652 1.20312C7.38189 0.963542 8.09858 0.84375 8.81527 0.84375C9.42957 0.84375 9.98245 0.942708 10.4739 1.14062C10.9653 1.33854 11.38 1.61979 11.7179 1.98438C12.0557 2.33854 12.3168 2.77083 12.5011 3.28125C12.6854 3.78125 12.7775 4.34375 12.7775 4.96875C12.7775 5.5625 12.6751 6.14583 12.4704 6.71875C12.2656 7.29167 11.9943 7.83333 11.6564 8.34375C11.3186 8.85417 10.9346 9.32812 10.5046 9.76562C10.0848 10.1927 9.6497 10.5677 9.19921 10.8906C8.75896 11.2031 8.32895 11.4479 7.90917 11.625C7.4894 11.8021 7.12081 11.8906 6.80342 11.8906C6.52699 11.8906 6.27614 11.8281 6.0509 11.7031C5.83589 11.5677 5.6516 11.4062 5.49803 11.2188C5.35469 11.0208 5.24206 10.8177 5.16016 10.6094C5.07825 10.3906 5.0373 10.1979 5.0373 10.0312C5.0373 9.89583 5.05265 9.80729 5.08337 9.76562C5.12432 9.72396 5.17552 9.70833 5.23695 9.71875C5.30861 9.71875 5.39564 9.73438 5.49803 9.76562C5.60041 9.78646 5.71815 9.79688 5.85125 9.79688C6.28126 9.79688 6.75735 9.64583 7.27951 9.34375C7.80167 9.04167 8.29311 8.65625 8.75384 8.1875C9.21457 7.71875 9.59851 7.20312 9.90566 6.64062C10.2231 6.07812 10.3817 5.53125 10.3817 5C10.3817 4.45833 10.2486 4.03125 9.98245 3.71875C9.72649 3.40625 9.28624 3.25 8.66169 3.25C8.27263 3.25 7.84774 3.32812 7.38701 3.48438C6.93652 3.63021 6.48091 3.83854 6.02018 4.10938C5.55946 4.38021 5.11409 4.70833 4.68407 5.09375C4.25406 5.47917 3.87524 5.90625 3.54761 6.375C3.21998 6.83333 2.95378 7.33333 2.74901 7.875C2.55448 8.40625 2.45722 8.96354 2.45722 9.54688C2.45722 10.1615 2.56472 10.7135 2.77973 11.2031C3.00497 11.6823 3.29677 12.1198 3.65511 12.5156C4.02369 12.9115 4.43835 13.276 4.89908 13.6094C5.35981 13.9427 5.83077 14.276 6.31198 14.6094C6.79318 14.9323 7.26415 15.2708 7.72488 15.625C8.18561 15.9688 8.59514 16.3542 8.95349 16.7812C9.32207 17.1979 9.61387 17.6667 9.82887 18.1875C10.0541 18.6979 10.1667 19.2865 10.1667 19.9531C10.1667 20.599 10.0439 21.2135 9.79816 21.7969C9.56267 22.3698 9.23504 22.8698 8.81527 23.2969C8.39549 23.724 7.89893 24.0625 7.32558 24.3125C6.75223 24.5625 6.13793 24.6875 5.48267 24.6875Z" fill="white"/>
<path d="M17.9684 24.4219C17.2722 24.4219 16.5965 24.2917 15.9412 24.0312C15.2859 23.7708 14.7024 23.3854 14.1904 22.875C13.6888 22.3646 13.2843 21.7344 12.9772 20.9844C12.6803 20.2344 12.5318 19.3646 12.5318 18.375C12.5318 17.4583 12.6598 16.5573 12.9158 15.6719C13.1717 14.7865 13.5249 14 13.9754 13.3125C14.4259 12.6146 14.9634 12.0521 15.588 11.625C16.2228 11.1979 16.9139 10.9844 17.6613 10.9844C18.2039 10.9844 18.6646 11.099 19.0434 11.3281C19.4223 11.5469 19.7294 11.8177 19.9649 12.1406C20.2004 12.4531 20.3693 12.7917 20.4717 13.1562C20.5843 13.5208 20.6406 13.8438 20.6406 14.125C20.6406 14.3333 20.5843 14.5208 20.4717 14.6875C20.3693 14.8542 20.2413 14.9948 20.0878 15.1094C19.9342 15.224 19.7652 15.3125 19.581 15.375C19.3967 15.4271 19.2329 15.4479 19.0895 15.4375C18.9462 15.4271 18.8284 15.375 18.7363 15.2812C18.6544 15.1875 18.6288 15.0469 18.6595 14.8594C18.6185 14.724 18.5776 14.5573 18.5366 14.3594C18.5059 14.1615 18.4445 13.974 18.3523 13.7969C18.2704 13.6094 18.1527 13.4531 17.9991 13.3281C17.8455 13.1927 17.6357 13.125 17.3695 13.125C17.0828 13.125 16.8012 13.2656 16.5248 13.5469C16.2586 13.8177 16.018 14.1927 15.803 14.6719C15.5982 15.151 15.4293 15.7083 15.2962 16.3438C15.1733 16.9792 15.1119 17.6562 15.1119 18.375C15.1119 19.0104 15.1887 19.5729 15.3423 20.0625C15.5061 20.5521 15.7313 20.9635 16.018 21.2969C16.3047 21.6302 16.6425 21.8854 17.0316 22.0625C17.4309 22.2292 17.8609 22.3125 18.3216 22.3125C18.9359 22.3125 19.4683 22.1979 19.9188 21.9688C20.3796 21.7292 20.7686 21.4167 21.086 21.0312C21.4034 20.6458 21.6594 20.2135 21.8539 19.7344C22.0484 19.2552 22.1917 18.7708 22.2839 18.2812C22.3556 17.9271 22.4989 17.6927 22.7139 17.5781C22.9392 17.4531 23.1644 17.4219 23.3896 17.4844C23.6251 17.5469 23.8248 17.6823 23.9886 17.8906C24.1626 18.0885 24.2343 18.3281 24.2036 18.6094C24.1626 18.9323 24.0859 19.3021 23.9732 19.7188C23.8708 20.1354 23.7173 20.5573 23.5125 20.9844C23.3077 21.4115 23.0467 21.8333 22.7293 22.25C22.4221 22.6562 22.0433 23.0208 21.5928 23.3438C21.1423 23.6667 20.615 23.9271 20.011 24.125C19.4171 24.3229 18.7363 24.4219 17.9684 24.4219Z" fill="white"/>
<path d="M29.1334 24.4219C28.7648 24.4219 28.386 24.3646 27.9969 24.25C27.6181 24.1354 27.27 23.9375 26.9526 23.6562C26.6455 23.375 26.3895 23.0052 26.1847 22.5469C25.9902 22.0781 25.8929 21.4896 25.8929 20.7812C25.8929 19.75 26.026 18.6615 26.2922 17.5156C26.5687 16.3594 26.9628 15.0885 27.4748 13.7031H24.7258C24.7155 14.0156 24.695 14.4115 24.6643 14.8906C24.6438 15.3698 24.6029 15.8802 24.5415 16.4219C24.48 16.9635 24.3981 17.5104 24.2957 18.0625C24.2036 18.6146 24.0859 19.125 23.9425 19.5938C23.8401 19.9271 23.6763 20.1198 23.4511 20.1719C23.2361 20.224 23.0211 20.1875 22.8061 20.0625C22.591 19.9271 22.417 19.7344 22.2839 19.4844C22.1508 19.2344 22.1201 18.974 22.1917 18.7031C22.2737 18.3802 22.3453 17.9896 22.4068 17.5312C22.4682 17.0625 22.5143 16.5729 22.545 16.0625C22.5859 15.5417 22.6166 15.026 22.6371 14.5156C22.6576 13.9948 22.673 13.5312 22.6832 13.125C22.2941 12.9062 21.9716 12.6302 21.7157 12.2969C21.4597 11.9531 21.3317 11.5469 21.3317 11.0781C21.3317 10.8594 21.3727 10.6615 21.4546 10.4844C21.5467 10.2969 21.6645 10.1406 21.8078 10.0156C21.9511 9.88021 22.1201 9.78125 22.3146 9.71875C22.5091 9.64583 22.7088 9.60938 22.9136 9.60938C23.0978 9.60938 23.2873 9.63542 23.4818 9.6875C23.6866 9.73958 23.876 9.83333 24.05 9.96875C24.2343 10.1042 24.3981 10.2812 24.5415 10.5C24.6848 10.7188 24.8025 10.9896 24.8947 11.3125C25.1507 11.3438 25.3657 11.3698 25.5397 11.3906C25.724 11.401 25.8776 11.4115 26.0004 11.4219C26.1233 11.4323 26.2257 11.4375 26.3076 11.4375C26.3895 11.4375 26.4714 11.4375 26.5533 11.4375H28.1966C28.2887 11.4375 28.4218 11.4948 28.5959 11.6094C28.7802 11.724 28.9593 11.875 29.1334 12.0625C29.3074 12.2396 29.4508 12.4323 29.5634 12.6406C29.6863 12.849 29.7323 13.0469 29.7016 13.2344C29.7016 13.2969 29.6658 13.4479 29.5941 13.6875C29.5225 13.9271 29.4354 14.2292 29.333 14.5938C29.2307 14.9583 29.118 15.3802 28.9952 15.8594C28.8723 16.3281 28.7597 16.8229 28.6573 17.3438C28.5549 17.8646 28.4679 18.4062 28.3962 18.9688C28.3246 19.5208 28.2887 20.0625 28.2887 20.5938C28.2887 20.8125 28.3143 21.026 28.3655 21.2344C28.4167 21.4427 28.4935 21.6302 28.5959 21.7969C28.6983 21.9531 28.8262 22.0781 28.9798 22.1719C29.1436 22.2656 29.333 22.3125 29.548 22.3125C29.9064 22.3125 30.2135 22.1979 30.4695 21.9688C30.7255 21.7396 30.9405 21.4531 31.1145 21.1094C31.2886 20.7656 31.4268 20.3958 31.5292 20C31.6418 19.5938 31.7339 19.2135 31.8056 18.8594C31.867 18.526 31.9694 18.2865 32.1128 18.1406C32.2561 17.9844 32.4046 17.9062 32.5581 17.9062C32.681 17.9062 32.809 17.9479 32.9421 18.0312C33.0752 18.1042 33.1929 18.2031 33.2953 18.3281C33.4079 18.4531 33.495 18.5938 33.5564 18.75C33.6281 18.9062 33.6639 19.0625 33.6639 19.2188C33.6639 19.2708 33.6588 19.3125 33.6485 19.3438C33.6383 19.375 33.6332 19.4062 33.6332 19.4375C33.4898 19.9688 33.3004 20.526 33.0649 21.1094C32.8397 21.6927 32.5479 22.2292 32.1896 22.7188C31.8312 23.2083 31.4012 23.6146 30.8995 23.9375C30.3978 24.2604 29.8091 24.4219 29.1334 24.4219Z" fill="white"/>
<path d="M33.6178 8.14062C33.3619 8.14062 33.1161 8.08854 32.8806 7.98438C32.6554 7.88021 32.4558 7.73958 32.2817 7.5625C32.1179 7.38542 31.9848 7.18229 31.8824 6.95312C31.78 6.71354 31.7288 6.45833 31.7288 6.1875C31.7288 5.90625 31.78 5.64583 31.8824 5.40625C31.9848 5.16667 32.1179 4.96354 32.2817 4.79688C32.4558 4.61979 32.6554 4.48438 32.8806 4.39062C33.1161 4.28646 33.3619 4.23438 33.6178 4.23438C33.8943 4.23438 34.1502 4.28646 34.3857 4.39062C34.6212 4.48438 34.8208 4.61979 34.9846 4.79688C35.1587 4.96354 35.2918 5.16667 35.3839 5.40625C35.4863 5.64583 35.5375 5.90625 35.5375 6.1875C35.5375 6.45833 35.4863 6.71354 35.3839 6.95312C35.2918 7.18229 35.1587 7.38542 34.9846 7.5625C34.8208 7.73958 34.6212 7.88021 34.3857 7.98438C34.1502 8.08854 33.8943 8.14062 33.6178 8.14062ZM34.3396 20.8438C34.3396 20.9167 34.3447 21.0365 34.355 21.2031C34.3652 21.3594 34.3959 21.5208 34.4471 21.6875C34.4983 21.8542 34.5802 22 34.6928 22.125C34.8055 22.25 34.9642 22.3125 35.1689 22.3125C35.4761 22.3125 35.7423 22.1979 35.9675 21.9688C36.203 21.7396 36.4027 21.4531 36.5665 21.1094C36.7405 20.7656 36.8839 20.3958 36.9965 20C37.1091 19.5938 37.2013 19.2135 37.2729 18.8594C37.3344 18.5365 37.4265 18.3021 37.5494 18.1562C37.6825 18.0104 37.8207 17.9323 37.964 17.9219C38.1176 17.901 38.2661 17.9375 38.4094 18.0312C38.563 18.125 38.6961 18.25 38.8087 18.4062C38.9315 18.5521 39.0186 18.7188 39.0698 18.9062C39.1312 19.0938 39.1414 19.2708 39.1005 19.4375C38.9571 19.9688 38.7677 20.526 38.5322 21.1094C38.307 21.6927 38.0152 22.2292 37.6569 22.7188C37.2985 23.2083 36.8685 23.6146 36.3668 23.9375C35.8651 24.2604 35.2764 24.4219 34.6007 24.4219C34.1809 24.4219 33.8072 24.3385 33.4796 24.1719C33.152 24.0156 32.8755 23.8021 32.6503 23.5312C32.425 23.2604 32.251 22.9427 32.1281 22.5781C32.0155 22.2135 31.9592 21.8281 31.9592 21.4219V12.875C31.9592 12.5729 31.9336 12.3542 31.8824 12.2188C31.8414 12.0833 31.821 11.9583 31.821 11.8438C31.821 11.6875 31.9029 11.5625 32.0667 11.4688C32.2305 11.3646 32.425 11.3125 32.6503 11.3125C33.1724 11.3125 33.582 11.4531 33.8789 11.7344C34.186 12.0052 34.3396 12.3333 34.3396 12.7188V20.8438Z" fill="white"/>
<path d="M40.8205 15.375C40.8205 14.7292 40.8871 14.1719 41.0202 13.7031C41.1635 13.224 41.3581 12.8333 41.6038 12.5312C41.8495 12.2188 42.1311 11.9896 42.4484 11.8438C42.7761 11.6979 43.1242 11.625 43.4928 11.625C43.9125 11.625 44.3221 11.7292 44.7214 11.9375C45.1207 12.1458 45.4739 12.4635 45.781 12.8906C46.0984 13.3177 46.3493 13.8594 46.5336 14.5156C46.7281 15.1719 46.8254 15.9479 46.8254 16.8438C46.8254 17.4688 46.7844 18.0938 46.7025 18.7188C46.6308 19.3333 46.5131 19.9219 46.3493 20.4844C46.4619 20.526 46.5694 20.5521 46.6718 20.5625C46.7844 20.5625 46.897 20.5625 47.0097 20.5625C47.3475 20.5625 47.6444 20.5 47.9004 20.375C48.1666 20.25 48.3918 20.0833 48.5761 19.875C48.7707 19.6667 48.9242 19.4219 49.0369 19.1406C49.1495 18.8594 49.2314 18.5625 49.2826 18.25C49.3031 18.125 49.3696 18.0208 49.4822 17.9375C49.6051 17.8542 49.7433 17.7969 49.8969 17.7656C50.0505 17.7344 50.2092 17.7344 50.373 17.7656C50.547 17.7969 50.6955 17.8698 50.8183 17.9844C50.9412 18.0885 51.0282 18.2396 51.0794 18.4375C51.1409 18.625 51.1409 18.8698 51.0794 19.1719C50.9873 19.6094 50.8337 20.0208 50.6187 20.4062C50.4139 20.7812 50.1528 21.1146 49.8355 21.4062C49.5181 21.6979 49.1444 21.9271 48.7143 22.0938C48.2843 22.2604 47.8031 22.3438 47.2707 22.3438C46.9841 22.3438 46.7076 22.3281 46.4414 22.2969C46.1752 22.2656 45.9141 22.2083 45.6582 22.125C45.2691 22.8125 44.7623 23.3646 44.1378 23.7812C43.5132 24.2083 42.7402 24.4219 41.8188 24.4219C41.0919 24.4219 40.452 24.2917 39.8991 24.0312C39.3564 23.7708 38.8957 23.4062 38.5169 22.9375C38.1483 22.4583 37.8668 21.8906 37.6722 21.2344C37.4879 20.5781 37.3958 19.8594 37.3958 19.0781V3.8125C37.3958 3.58333 37.3753 3.40104 37.3344 3.26562C37.3036 3.13021 37.2678 3.02604 37.2269 2.95312C37.1961 2.86979 37.1603 2.80729 37.1194 2.76562C37.0886 2.71354 37.0733 2.66146 37.0733 2.60938C37.0733 2.54688 37.104 2.49479 37.1654 2.45312C37.2269 2.41146 37.3088 2.375 37.4111 2.34375C37.5135 2.3125 37.621 2.29167 37.7337 2.28125C37.8565 2.26042 37.9743 2.25 38.0869 2.25C38.609 2.25 39.0186 2.39062 39.3155 2.67188C39.6226 2.94271 39.7762 3.27083 39.7762 3.65625V18.6406C39.7762 19.1719 39.8223 19.6615 39.9144 20.1094C40.0066 20.5573 40.1448 20.9479 40.3291 21.2812C40.5134 21.6042 40.7437 21.8594 41.0202 22.0469C41.3069 22.224 41.6396 22.3125 42.0184 22.3125C42.4075 22.3125 42.7402 22.2135 43.0167 22.0156C43.2931 21.8073 43.5235 21.5312 43.7078 21.1875C43.2573 20.8646 42.8529 20.4896 42.4945 20.0625C42.1464 19.625 41.8444 19.1562 41.5884 18.6562C41.3427 18.1458 41.1533 17.6146 41.0202 17.0625C40.8871 16.5 40.8205 15.9375 40.8205 15.375ZM42.771 15.25C42.771 16.0208 42.904 16.75 43.1702 17.4375C43.4467 18.125 43.8153 18.7188 44.276 19.2188C44.3374 18.8438 44.3784 18.474 44.3989 18.1094C44.4193 17.7344 44.4296 17.3958 44.4296 17.0938C44.4296 16.0208 44.317 15.1927 44.0917 14.6094C43.8767 14.026 43.6259 13.7344 43.3392 13.7344C43.1344 13.7344 42.986 13.875 42.8938 14.1562C42.8119 14.4271 42.771 14.7917 42.771 15.25Z" fill="white"/>
<path d="M56.516 14.2188C56.516 14.8125 56.4136 15.4219 56.2089 16.0469C56.0143 16.6719 55.7174 17.2656 55.3181 17.8281C54.9291 18.3802 54.4427 18.8802 53.8591 19.3281C53.2858 19.7656 52.6203 20.099 51.8627 20.3281C51.965 20.599 52.0981 20.8594 52.262 21.1094C52.436 21.349 52.6408 21.5573 52.8763 21.7344C53.1117 21.9115 53.3831 22.0521 53.6902 22.1562C54.0076 22.2604 54.3711 22.3125 54.7806 22.3125C55.3949 22.3125 55.9222 22.1979 56.3624 21.9688C56.8027 21.7292 57.1713 21.4167 57.4682 21.0312C57.7753 20.6458 58.0211 20.2135 58.2054 19.7344C58.3896 19.2552 58.5279 18.7708 58.62 18.2812C58.6917 17.9271 58.835 17.6927 59.05 17.5781C59.2753 17.4531 59.5005 17.4219 59.7258 17.4844C59.9612 17.5469 60.1609 17.6823 60.3247 17.8906C60.4988 18.0885 60.5704 18.3281 60.5397 18.6094C60.4988 18.9323 60.4271 19.3021 60.3247 19.7188C60.2326 20.1354 60.0892 20.5573 59.8947 20.9844C59.7002 21.4115 59.4493 21.8333 59.1422 22.25C58.8453 22.6562 58.4767 23.0208 58.0364 23.3438C57.5962 23.6667 57.0791 23.9271 56.4853 24.125C55.8915 24.3229 55.2106 24.4219 54.4427 24.4219C53.726 24.4219 53.0298 24.276 52.3541 23.9844C51.6886 23.7031 51.0948 23.2969 50.5726 22.7656C50.0607 22.224 49.646 21.5625 49.3287 20.7812C49.0215 19.9896 48.8679 19.0938 48.8679 18.0938C48.8679 17.0833 49.0061 16.1458 49.2826 15.2812C49.559 14.4062 49.9225 13.651 50.373 13.0156C50.8235 12.3802 51.3354 11.8854 51.9087 11.5312C52.4821 11.1667 53.0708 10.9844 53.6749 10.9844C54.1151 10.9844 54.5093 11.0625 54.8574 11.2188C55.2157 11.375 55.5178 11.599 55.7635 11.8906C56.0092 12.1719 56.1935 12.5104 56.3164 12.9062C56.4495 13.3021 56.516 13.7396 56.516 14.2188ZM51.448 18C51.448 18.0938 51.4531 18.1875 51.4634 18.2812C51.4736 18.375 51.4787 18.474 51.4787 18.5781C51.8678 18.3906 52.221 18.151 52.5384 17.8594C52.8558 17.5677 53.1271 17.2344 53.3523 16.8594C53.5776 16.4844 53.7516 16.0781 53.8745 15.6406C53.9974 15.1927 54.0588 14.7292 54.0588 14.25C54.0588 13.8958 53.9974 13.6198 53.8745 13.4219C53.7619 13.224 53.6032 13.125 53.3984 13.125C53.1425 13.125 52.9121 13.2135 52.7073 13.3906C52.5128 13.5677 52.3387 13.8021 52.1852 14.0938C52.0418 14.375 51.919 14.6979 51.8166 15.0625C51.7244 15.4167 51.6477 15.776 51.5862 16.1406C51.5248 16.5052 51.4838 16.8542 51.4634 17.1875C51.4429 17.5104 51.4378 17.7812 51.448 18Z" fill="white"/>
<path d="M65.4695 24.4219C65.1009 24.4219 64.7221 24.3646 64.333 24.25C63.9542 24.1354 63.6061 23.9375 63.2887 23.6562C62.9816 23.375 62.7256 23.0052 62.5208 22.5469C62.3263 22.0781 62.229 21.4896 62.229 20.7812C62.229 19.75 62.3621 18.6615 62.6283 17.5156C62.9048 16.3594 63.299 15.0885 63.8109 13.7031H61.0619C61.0516 14.0156 61.0312 14.4115 61.0004 14.8906C60.98 15.3698 60.939 15.8802 60.8776 16.4219C60.8161 16.9635 60.7342 17.5104 60.6319 18.0625C60.5397 18.6146 60.422 19.125 60.2786 19.5938C60.1762 19.9271 60.0124 20.1198 59.7872 20.1719C59.5722 20.224 59.3572 20.1875 59.1422 20.0625C58.9272 19.9271 58.7531 19.7344 58.62 19.4844C58.4869 19.2344 58.4562 18.974 58.5279 18.7031C58.6098 18.3802 58.6814 17.9896 58.7429 17.5312C58.8043 17.0625 58.8504 16.5729 58.8811 16.0625C58.922 15.5417 58.9528 15.026 58.9732 14.5156C58.9937 13.9948 59.0091 13.5312 59.0193 13.125C58.6302 12.9062 58.3077 12.6302 58.0518 12.2969C57.7958 11.9531 57.6678 11.5469 57.6678 11.0781C57.6678 10.8594 57.7088 10.6615 57.7907 10.4844C57.8828 10.2969 58.0006 10.1406 58.1439 10.0156C58.2873 9.88021 58.4562 9.78125 58.6507 9.71875C58.8453 9.64583 59.0449 9.60938 59.2497 9.60938C59.434 9.60938 59.6234 9.63542 59.8179 9.6875C60.0227 9.73958 60.2121 9.83333 60.3861 9.96875C60.5704 10.1042 60.7342 10.2812 60.8776 10.5C61.0209 10.7188 61.1387 10.9896 61.2308 11.3125C61.4868 11.3438 61.7018 11.3698 61.8758 11.3906C62.0601 11.401 62.2137 11.4115 62.3365 11.4219C62.4594 11.4323 62.5618 11.4375 62.6437 11.4375C62.7256 11.4375 62.8075 11.4375 62.8894 11.4375H64.5327C64.6248 11.4375 64.7579 11.4948 64.932 11.6094C65.1163 11.724 65.2954 11.875 65.4695 12.0625C65.6436 12.2396 65.7869 12.4323 65.8995 12.6406C66.0224 12.849 66.0685 13.0469 66.0377 13.2344C66.0377 13.2969 66.0019 13.4479 65.9302 13.6875C65.8586 13.9271 65.7715 14.2292 65.6692 14.5938C65.5668 14.9583 65.4541 15.3802 65.3313 15.8594C65.2084 16.3281 65.0958 16.8229 64.9934 17.3438C64.891 17.8646 64.804 18.4062 64.7323 18.9688C64.6607 19.5208 64.6248 20.0625 64.6248 20.5938C64.6248 20.8125 64.6504 21.026 64.7016 21.2344C64.7528 21.4427 64.8296 21.6302 64.932 21.7969C65.0344 21.9531 65.1624 22.0781 65.3159 22.1719C65.4797 22.2656 65.6692 22.3125 65.8842 22.3125C66.2425 22.3125 66.5497 22.1979 66.8056 21.9688C67.0616 21.7396 67.2766 21.4531 67.4506 21.1094C67.6247 20.7656 67.7629 20.3958 67.8653 20C67.9779 19.5938 68.0701 19.2135 68.1417 18.8594C68.2032 18.526 68.3055 18.2865 68.4489 18.1406C68.5922 17.9844 68.7407 17.9062 68.8942 17.9062C69.0171 17.9062 69.1451 17.9479 69.2782 18.0312C69.4113 18.1042 69.529 18.2031 69.6314 18.3281C69.744 18.4531 69.8311 18.5938 69.8925 18.75C69.9642 18.9062 70 19.0625 70 19.2188C70 19.2708 69.9949 19.3125 69.9846 19.3438C69.9744 19.375 69.9693 19.4062 69.9693 19.4375C69.8259 19.9688 69.6365 20.526 69.4011 21.1094C69.1758 21.6927 68.884 22.2292 68.5257 22.7188C68.1673 23.2083 67.7373 23.6146 67.2356 23.9375C66.7339 24.2604 66.1452 24.4219 65.4695 24.4219Z" fill="white"/>
</svg>
