<svg width="70" height="24" viewBox="0 0 70 24" fill="none" xmlns="http://www.w3.org/2000/svg">
<path d="M5.48267 23.8438C4.81717 23.8438 4.2643 23.7656 3.82405 23.6094C3.38379 23.4635 3.03569 23.2969 2.77973 23.1094C2.52377 22.9219 2.3446 22.7448 2.24221 22.5781C2.13983 22.401 2.08864 22.2865 2.08864 22.2344C2.08864 22.0469 2.12959 21.849 2.2115 21.6406C2.2934 21.4219 2.39579 21.224 2.51865 21.0469C2.64151 20.8594 2.77461 20.7031 2.91795 20.5781C3.06128 20.4531 3.18926 20.3906 3.30189 20.3906C3.44522 20.3906 3.56297 20.4844 3.65511 20.6719C3.67559 20.6927 3.72678 20.7448 3.80869 20.8281C3.8906 20.9115 4.00322 21 4.14656 21.0938C4.30013 21.1771 4.48442 21.2552 4.69943 21.3281C4.92467 21.401 5.18575 21.4375 5.48267 21.4375C6.12769 21.4375 6.65497 21.2396 7.0645 20.8438C7.47404 20.4375 7.67881 19.8906 7.67881 19.2031C7.67881 18.724 7.56618 18.2969 7.34094 17.9219C7.12593 17.5469 6.83926 17.1979 6.48091 16.875C6.12257 16.5521 5.71303 16.2396 5.2523 15.9375C4.79157 15.625 4.32061 15.3021 3.8394 14.9688C3.3582 14.6354 2.88723 14.276 2.4265 13.8906C1.96577 13.5052 1.55624 13.0625 1.19789 12.5625C0.839549 12.0625 0.547755 11.5 0.32251 10.875C0.107503 10.2396 0 9.51562 0 8.70312C0 8.00521 0.117742 7.30208 0.353225 6.59375C0.588708 5.88542 0.911218 5.21354 1.32075 4.57812C1.74053 3.93229 2.23197 3.33333 2.79509 2.78125C3.3582 2.21875 3.96738 1.73438 4.62264 1.32812C5.2779 0.911458 5.95875 0.588542 6.6652 0.359375C7.38189 0.119792 8.09858 0 8.81527 0C9.42957 0 9.98245 0.0989583 10.4739 0.296875C10.9653 0.494792 11.38 0.776042 11.7179 1.14062C12.0557 1.49479 12.3168 1.92708 12.5011 2.4375C12.6854 2.9375 12.7775 3.5 12.7775 4.125C12.7775 4.71875 12.6751 5.30208 12.4704 5.875C12.2656 6.44792 11.9943 6.98958 11.6564 7.5C11.3186 8.01042 10.9346 8.48438 10.5046 8.92188C10.0848 9.34896 9.6497 9.72396 9.19921 10.0469C8.75896 10.3594 8.32895 10.6042 7.90917 10.7812C7.4894 10.9583 7.12081 11.0469 6.80342 11.0469C6.52699 11.0469 6.27614 10.9844 6.0509 10.8594C5.83589 10.724 5.6516 10.5625 5.49803 10.375C5.35469 10.1771 5.24206 9.97396 5.16016 9.76562C5.07825 9.54688 5.0373 9.35417 5.0373 9.1875C5.0373 9.05208 5.05265 8.96354 5.08337 8.92188C5.12432 8.88021 5.17552 8.86458 5.23695 8.875C5.30861 8.875 5.39564 8.89062 5.49803 8.92188C5.60041 8.94271 5.71815 8.95312 5.85125 8.95312C6.28126 8.95312 6.75735 8.80208 7.27951 8.5C7.80167 8.19792 8.29311 7.8125 8.75384 7.34375C9.21457 6.875 9.59851 6.35938 9.90566 5.79688C10.2231 5.23438 10.3817 4.6875 10.3817 4.15625C10.3817 3.61458 10.2486 3.1875 9.98245 2.875C9.72649 2.5625 9.28624 2.40625 8.66169 2.40625C8.27263 2.40625 7.84774 2.48438 7.38701 2.64062C6.93652 2.78646 6.48091 2.99479 6.02018 3.26562C5.55946 3.53646 5.11409 3.86458 4.68407 4.25C4.25406 4.63542 3.87524 5.0625 3.54761 5.53125C3.21998 5.98958 2.95378 6.48958 2.74901 7.03125C2.55448 7.5625 2.45722 8.11979 2.45722 8.70312C2.45722 9.31771 2.56472 9.86979 2.77973 10.3594C3.00497 10.8385 3.29677 11.276 3.65511 11.6719C4.02369 12.0677 4.43835 12.4323 4.89908 12.7656C5.35981 13.099 5.83077 13.4323 6.31198 13.7656C6.79318 14.0885 7.26415 14.4271 7.72488 14.7812C8.18561 15.125 8.59514 15.5104 8.95349 15.9375C9.32207 16.3542 9.61387 16.8229 9.82887 17.3438C10.0541 17.8542 10.1667 18.4427 10.1667 19.1094C10.1667 19.7552 10.0439 20.3698 9.79816 20.9531C9.56267 21.526 9.23504 22.026 8.81527 22.4531C8.39549 22.8802 7.89893 23.2188 7.32558 23.4688C6.75223 23.7188 6.13793 23.8438 5.48267 23.8438Z" fill="#344A76"/>
<path d="M17.9684 23.5781C17.2722 23.5781 16.5965 23.4479 15.9412 23.1875C15.2859 22.9271 14.7024 22.5417 14.1904 22.0312C13.6888 21.5208 13.2843 20.8906 12.9772 20.1406C12.6803 19.3906 12.5318 18.5208 12.5318 17.5312C12.5318 16.6146 12.6598 15.7135 12.9158 14.8281C13.1717 13.9427 13.5249 13.1562 13.9754 12.4688C14.4259 11.7708 14.9634 11.2083 15.588 10.7812C16.2228 10.3542 16.9139 10.1406 17.6613 10.1406C18.2039 10.1406 18.6646 10.2552 19.0434 10.4844C19.4223 10.7031 19.7294 10.974 19.9649 11.2969C20.2004 11.6094 20.3693 11.9479 20.4717 12.3125C20.5843 12.6771 20.6406 13 20.6406 13.2812C20.6406 13.4896 20.5843 13.6771 20.4717 13.8438C20.3693 14.0104 20.2413 14.151 20.0878 14.2656C19.9342 14.3802 19.7652 14.4688 19.581 14.5312C19.3967 14.5833 19.2329 14.6042 19.0895 14.5938C18.9462 14.5833 18.8284 14.5312 18.7363 14.4375C18.6544 14.3438 18.6288 14.2031 18.6595 14.0156C18.6185 13.8802 18.5776 13.7135 18.5366 13.5156C18.5059 13.3177 18.4445 13.1302 18.3523 12.9531C18.2704 12.7656 18.1527 12.6094 17.9991 12.4844C17.8455 12.349 17.6357 12.2812 17.3695 12.2812C17.0828 12.2812 16.8012 12.4219 16.5248 12.7031C16.2586 12.974 16.018 13.349 15.803 13.8281C15.5982 14.3073 15.4293 14.8646 15.2962 15.5C15.1733 16.1354 15.1119 16.8125 15.1119 17.5312C15.1119 18.1667 15.1887 18.7292 15.3423 19.2188C15.5061 19.7083 15.7313 20.1198 16.018 20.4531C16.3047 20.7865 16.6425 21.0417 17.0316 21.2188C17.4309 21.3854 17.8609 21.4688 18.3216 21.4688C18.9359 21.4688 19.4683 21.3542 19.9188 21.125C20.3796 20.8854 20.7686 20.5729 21.086 20.1875C21.4034 19.8021 21.6594 19.3698 21.8539 18.8906C22.0484 18.4115 22.1917 17.9271 22.2839 17.4375C22.3556 17.0833 22.4989 16.849 22.7139 16.7344C22.9392 16.6094 23.1644 16.5781 23.3896 16.6406C23.6251 16.7031 23.8248 16.8385 23.9886 17.0469C24.1626 17.2448 24.2343 17.4844 24.2036 17.7656C24.1626 18.0885 24.0859 18.4583 23.9732 18.875C23.8708 19.2917 23.7173 19.7135 23.5125 20.1406C23.3077 20.5677 23.0467 20.9896 22.7293 21.4062C22.4221 21.8125 22.0433 22.1771 21.5928 22.5C21.1423 22.8229 20.615 23.0833 20.011 23.2812C19.4171 23.4792 18.7363 23.5781 17.9684 23.5781Z" fill="#344A76"/>
<path d="M29.1334 23.5781C28.7648 23.5781 28.386 23.5208 27.9969 23.4062C27.6181 23.2917 27.27 23.0938 26.9526 22.8125C26.6455 22.5312 26.3895 22.1615 26.1847 21.7031C25.9902 21.2344 25.8929 20.6458 25.8929 19.9375C25.8929 18.9062 26.026 17.8177 26.2922 16.6719C26.5687 15.5156 26.9628 14.2448 27.4748 12.8594H24.7258C24.7155 13.1719 24.695 13.5677 24.6643 14.0469C24.6438 14.526 24.6029 15.0365 24.5415 15.5781C24.48 16.1198 24.3981 16.6667 24.2957 17.2188C24.2036 17.7708 24.0859 18.2812 23.9425 18.75C23.8401 19.0833 23.6763 19.276 23.4511 19.3281C23.2361 19.3802 23.0211 19.3438 22.8061 19.2188C22.591 19.0833 22.417 18.8906 22.2839 18.6406C22.1508 18.3906 22.1201 18.1302 22.1917 17.8594C22.2737 17.5365 22.3453 17.1458 22.4068 16.6875C22.4682 16.2188 22.5143 15.7292 22.545 15.2188C22.5859 14.6979 22.6166 14.1823 22.6371 13.6719C22.6576 13.151 22.673 12.6875 22.6832 12.2812C22.2941 12.0625 21.9716 11.7865 21.7157 11.4531C21.4597 11.1094 21.3317 10.7031 21.3317 10.2344C21.3317 10.0156 21.3727 9.81771 21.4546 9.64062C21.5467 9.45312 21.6645 9.29688 21.8078 9.17188C21.9511 9.03646 22.1201 8.9375 22.3146 8.875C22.5091 8.80208 22.7088 8.76562 22.9136 8.76562C23.0978 8.76562 23.2873 8.79167 23.4818 8.84375C23.6866 8.89583 23.876 8.98958 24.05 9.125C24.2343 9.26042 24.3981 9.4375 24.5415 9.65625C24.6848 9.875 24.8025 10.1458 24.8947 10.4688C25.1507 10.5 25.3657 10.526 25.5397 10.5469C25.724 10.5573 25.8776 10.5677 26.0004 10.5781C26.1233 10.5885 26.2257 10.5938 26.3076 10.5938C26.3895 10.5938 26.4714 10.5938 26.5533 10.5938H28.1966C28.2887 10.5938 28.4218 10.651 28.5959 10.7656C28.7802 10.8802 28.9593 11.0312 29.1334 11.2188C29.3074 11.3958 29.4508 11.5885 29.5634 11.7969C29.6863 12.0052 29.7323 12.2031 29.7016 12.3906C29.7016 12.4531 29.6658 12.6042 29.5941 12.8438C29.5225 13.0833 29.4354 13.3854 29.333 13.75C29.2307 14.1146 29.118 14.5365 28.9952 15.0156C28.8723 15.4844 28.7597 15.9792 28.6573 16.5C28.5549 17.0208 28.4679 17.5625 28.3962 18.125C28.3246 18.6771 28.2887 19.2188 28.2887 19.75C28.2887 19.9688 28.3143 20.1823 28.3655 20.3906C28.4167 20.599 28.4935 20.7865 28.5959 20.9531C28.6983 21.1094 28.8262 21.2344 28.9798 21.3281C29.1436 21.4219 29.333 21.4688 29.548 21.4688C29.9064 21.4688 30.2135 21.3542 30.4695 21.125C30.7255 20.8958 30.9405 20.6094 31.1145 20.2656C31.2886 19.9219 31.4268 19.5521 31.5292 19.1562C31.6418 18.75 31.7339 18.3698 31.8056 18.0156C31.867 17.6823 31.9694 17.4427 32.1128 17.2969C32.2561 17.1406 32.4046 17.0625 32.5581 17.0625C32.681 17.0625 32.809 17.1042 32.9421 17.1875C33.0752 17.2604 33.1929 17.3594 33.2953 17.4844C33.4079 17.6094 33.495 17.75 33.5564 17.9062C33.6281 18.0625 33.6639 18.2188 33.6639 18.375C33.6639 18.4271 33.6588 18.4688 33.6485 18.5C33.6383 18.5312 33.6332 18.5625 33.6332 18.5938C33.4898 19.125 33.3004 19.6823 33.0649 20.2656C32.8397 20.849 32.5479 21.3854 32.1896 21.875C31.8312 22.3646 31.4012 22.7708 30.8995 23.0938C30.3978 23.4167 29.8091 23.5781 29.1334 23.5781Z" fill="#344A76"/>
<path d="M33.6178 7.29688C33.3619 7.29688 33.1161 7.24479 32.8806 7.14062C32.6554 7.03646 32.4558 6.89583 32.2817 6.71875C32.1179 6.54167 31.9848 6.33854 31.8824 6.10938C31.78 5.86979 31.7288 5.61458 31.7288 5.34375C31.7288 5.0625 31.78 4.80208 31.8824 4.5625C31.9848 4.32292 32.1179 4.11979 32.2817 3.95312C32.4558 3.77604 32.6554 3.64062 32.8806 3.54688C33.1161 3.44271 33.3619 3.39062 33.6178 3.39062C33.8943 3.39062 34.1502 3.44271 34.3857 3.54688C34.6212 3.64062 34.8208 3.77604 34.9846 3.95312C35.1587 4.11979 35.2918 4.32292 35.3839 4.5625C35.4863 4.80208 35.5375 5.0625 35.5375 5.34375C35.5375 5.61458 35.4863 5.86979 35.3839 6.10938C35.2918 6.33854 35.1587 6.54167 34.9846 6.71875C34.8208 6.89583 34.6212 7.03646 34.3857 7.14062C34.1502 7.24479 33.8943 7.29688 33.6178 7.29688ZM34.3396 20C34.3396 20.0729 34.3447 20.1927 34.355 20.3594C34.3652 20.5156 34.3959 20.6771 34.4471 20.8438C34.4983 21.0104 34.5802 21.1562 34.6928 21.2812C34.8055 21.4062 34.9642 21.4688 35.1689 21.4688C35.4761 21.4688 35.7423 21.3542 35.9675 21.125C36.203 20.8958 36.4027 20.6094 36.5665 20.2656C36.7405 19.9219 36.8839 19.5521 36.9965 19.1562C37.1091 18.75 37.2013 18.3698 37.2729 18.0156C37.3344 17.6927 37.4265 17.4583 37.5494 17.3125C37.6825 17.1667 37.8207 17.0885 37.964 17.0781C38.1176 17.0573 38.2661 17.0938 38.4094 17.1875C38.563 17.2812 38.6961 17.4062 38.8087 17.5625C38.9315 17.7083 39.0186 17.875 39.0698 18.0625C39.1312 18.25 39.1414 18.4271 39.1005 18.5938C38.9571 19.125 38.7677 19.6823 38.5322 20.2656C38.307 20.849 38.0152 21.3854 37.6569 21.875C37.2985 22.3646 36.8685 22.7708 36.3668 23.0938C35.8651 23.4167 35.2764 23.5781 34.6007 23.5781C34.1809 23.5781 33.8072 23.4948 33.4796 23.3281C33.152 23.1719 32.8755 22.9583 32.6503 22.6875C32.425 22.4167 32.251 22.099 32.1281 21.7344C32.0155 21.3698 31.9592 20.9844 31.9592 20.5781V12.0312C31.9592 11.7292 31.9336 11.5104 31.8824 11.375C31.8414 11.2396 31.821 11.1146 31.821 11C31.821 10.8438 31.9029 10.7188 32.0667 10.625C32.2305 10.5208 32.425 10.4688 32.6503 10.4688C33.1724 10.4688 33.582 10.6094 33.8789 10.8906C34.186 11.1615 34.3396 11.4896 34.3396 11.875V20Z" fill="#344A76"/>
<path d="M40.8205 14.5312C40.8205 13.8854 40.8871 13.3281 41.0202 12.8594C41.1635 12.3802 41.3581 11.9896 41.6038 11.6875C41.8495 11.375 42.1311 11.1458 42.4484 11C42.7761 10.8542 43.1242 10.7812 43.4928 10.7812C43.9125 10.7812 44.3221 10.8854 44.7214 11.0938C45.1207 11.3021 45.4739 11.6198 45.781 12.0469C46.0984 12.474 46.3493 13.0156 46.5336 13.6719C46.7281 14.3281 46.8254 15.1042 46.8254 16C46.8254 16.625 46.7844 17.25 46.7025 17.875C46.6308 18.4896 46.5131 19.0781 46.3493 19.6406C46.4619 19.6823 46.5694 19.7083 46.6718 19.7188C46.7844 19.7188 46.897 19.7188 47.0097 19.7188C47.3475 19.7188 47.6444 19.6562 47.9004 19.5312C48.1666 19.4062 48.3918 19.2396 48.5761 19.0312C48.7707 18.8229 48.9242 18.5781 49.0369 18.2969C49.1495 18.0156 49.2314 17.7188 49.2826 17.4062C49.3031 17.2812 49.3696 17.1771 49.4822 17.0938C49.6051 17.0104 49.7433 16.9531 49.8969 16.9219C50.0505 16.8906 50.2092 16.8906 50.373 16.9219C50.547 16.9531 50.6955 17.026 50.8183 17.1406C50.9412 17.2448 51.0282 17.3958 51.0794 17.5938C51.1409 17.7812 51.1409 18.026 51.0794 18.3281C50.9873 18.7656 50.8337 19.1771 50.6187 19.5625C50.4139 19.9375 50.1528 20.2708 49.8355 20.5625C49.5181 20.8542 49.1444 21.0833 48.7143 21.25C48.2843 21.4167 47.8031 21.5 47.2707 21.5C46.9841 21.5 46.7076 21.4844 46.4414 21.4531C46.1752 21.4219 45.9141 21.3646 45.6582 21.2812C45.2691 21.9688 44.7623 22.5208 44.1378 22.9375C43.5132 23.3646 42.7402 23.5781 41.8188 23.5781C41.0919 23.5781 40.452 23.4479 39.8991 23.1875C39.3564 22.9271 38.8957 22.5625 38.5169 22.0938C38.1483 21.6146 37.8668 21.0469 37.6722 20.3906C37.4879 19.7344 37.3958 19.0156 37.3958 18.2344V2.96875C37.3958 2.73958 37.3753 2.55729 37.3344 2.42188C37.3036 2.28646 37.2678 2.18229 37.2269 2.10938C37.1961 2.02604 37.1603 1.96354 37.1194 1.92188C37.0886 1.86979 37.0733 1.81771 37.0733 1.76562C37.0733 1.70312 37.104 1.65104 37.1654 1.60938C37.2269 1.56771 37.3088 1.53125 37.4111 1.5C37.5135 1.46875 37.621 1.44792 37.7337 1.4375C37.8565 1.41667 37.9743 1.40625 38.0869 1.40625C38.609 1.40625 39.0186 1.54688 39.3155 1.82812C39.6226 2.09896 39.7762 2.42708 39.7762 2.8125V17.7969C39.7762 18.3281 39.8223 18.8177 39.9144 19.2656C40.0066 19.7135 40.1448 20.1042 40.3291 20.4375C40.5134 20.7604 40.7437 21.0156 41.0202 21.2031C41.3069 21.3802 41.6396 21.4688 42.0184 21.4688C42.4075 21.4688 42.7402 21.3698 43.0167 21.1719C43.2931 20.9635 43.5235 20.6875 43.7078 20.3438C43.2573 20.0208 42.8529 19.6458 42.4945 19.2188C42.1464 18.7812 41.8444 18.3125 41.5884 17.8125C41.3427 17.3021 41.1533 16.7708 41.0202 16.2188C40.8871 15.6562 40.8205 15.0938 40.8205 14.5312ZM42.771 14.4062C42.771 15.1771 42.904 15.9062 43.1702 16.5938C43.4467 17.2812 43.8153 17.875 44.276 18.375C44.3374 18 44.3784 17.6302 44.3989 17.2656C44.4193 16.8906 44.4296 16.5521 44.4296 16.25C44.4296 15.1771 44.317 14.349 44.0917 13.7656C43.8767 13.1823 43.6259 12.8906 43.3392 12.8906C43.1344 12.8906 42.986 13.0312 42.8938 13.3125C42.8119 13.5833 42.771 13.9479 42.771 14.4062Z" fill="#344A76"/>
<path d="M56.516 13.375C56.516 13.9688 56.4136 14.5781 56.2089 15.2031C56.0143 15.8281 55.7174 16.4219 55.3181 16.9844C54.9291 17.5365 54.4427 18.0365 53.8591 18.4844C53.2858 18.9219 52.6203 19.2552 51.8627 19.4844C51.965 19.7552 52.0981 20.0156 52.262 20.2656C52.436 20.5052 52.6408 20.7135 52.8763 20.8906C53.1117 21.0677 53.3831 21.2083 53.6902 21.3125C54.0076 21.4167 54.3711 21.4688 54.7806 21.4688C55.3949 21.4688 55.9222 21.3542 56.3624 21.125C56.8027 20.8854 57.1713 20.5729 57.4682 20.1875C57.7753 19.8021 58.0211 19.3698 58.2054 18.8906C58.3896 18.4115 58.5279 17.9271 58.62 17.4375C58.6917 17.0833 58.835 16.849 59.05 16.7344C59.2753 16.6094 59.5005 16.5781 59.7258 16.6406C59.9612 16.7031 60.1609 16.8385 60.3247 17.0469C60.4988 17.2448 60.5704 17.4844 60.5397 17.7656C60.4988 18.0885 60.4271 18.4583 60.3247 18.875C60.2326 19.2917 60.0892 19.7135 59.8947 20.1406C59.7002 20.5677 59.4493 20.9896 59.1422 21.4062C58.8453 21.8125 58.4767 22.1771 58.0364 22.5C57.5962 22.8229 57.0791 23.0833 56.4853 23.2812C55.8915 23.4792 55.2106 23.5781 54.4427 23.5781C53.726 23.5781 53.0298 23.4323 52.3541 23.1406C51.6886 22.8594 51.0948 22.4531 50.5726 21.9219C50.0607 21.3802 49.646 20.7188 49.3287 19.9375C49.0215 19.1458 48.8679 18.25 48.8679 17.25C48.8679 16.2396 49.0061 15.3021 49.2826 14.4375C49.559 13.5625 49.9225 12.8073 50.373 12.1719C50.8235 11.5365 51.3354 11.0417 51.9087 10.6875C52.4821 10.3229 53.0708 10.1406 53.6749 10.1406C54.1151 10.1406 54.5093 10.2188 54.8574 10.375C55.2157 10.5312 55.5178 10.7552 55.7635 11.0469C56.0092 11.3281 56.1935 11.6667 56.3164 12.0625C56.4495 12.4583 56.516 12.8958 56.516 13.375ZM51.448 17.1562C51.448 17.25 51.4531 17.3438 51.4634 17.4375C51.4736 17.5312 51.4787 17.6302 51.4787 17.7344C51.8678 17.5469 52.221 17.3073 52.5384 17.0156C52.8558 16.724 53.1271 16.3906 53.3523 16.0156C53.5776 15.6406 53.7516 15.2344 53.8745 14.7969C53.9974 14.349 54.0588 13.8854 54.0588 13.4062C54.0588 13.0521 53.9974 12.776 53.8745 12.5781C53.7619 12.3802 53.6032 12.2812 53.3984 12.2812C53.1425 12.2812 52.9121 12.3698 52.7073 12.5469C52.5128 12.724 52.3387 12.9583 52.1852 13.25C52.0418 13.5312 51.919 13.8542 51.8166 14.2188C51.7244 14.5729 51.6477 14.9323 51.5862 15.2969C51.5248 15.6615 51.4838 16.0104 51.4634 16.3438C51.4429 16.6667 51.4378 16.9375 51.448 17.1562Z" fill="#344A76"/>
<path d="M65.4695 23.5781C65.1009 23.5781 64.7221 23.5208 64.333 23.4062C63.9542 23.2917 63.6061 23.0938 63.2887 22.8125C62.9816 22.5312 62.7256 22.1615 62.5208 21.7031C62.3263 21.2344 62.229 20.6458 62.229 19.9375C62.229 18.9062 62.3621 17.8177 62.6283 16.6719C62.9048 15.5156 63.299 14.2448 63.8109 12.8594H61.0619C61.0516 13.1719 61.0312 13.5677 61.0004 14.0469C60.98 14.526 60.939 15.0365 60.8776 15.5781C60.8161 16.1198 60.7342 16.6667 60.6319 17.2188C60.5397 17.7708 60.422 18.2812 60.2786 18.75C60.1762 19.0833 60.0124 19.276 59.7872 19.3281C59.5722 19.3802 59.3572 19.3438 59.1422 19.2188C58.9272 19.0833 58.7531 18.8906 58.62 18.6406C58.4869 18.3906 58.4562 18.1302 58.5279 17.8594C58.6098 17.5365 58.6814 17.1458 58.7429 16.6875C58.8043 16.2188 58.8504 15.7292 58.8811 15.2188C58.922 14.6979 58.9528 14.1823 58.9732 13.6719C58.9937 13.151 59.0091 12.6875 59.0193 12.2812C58.6302 12.0625 58.3077 11.7865 58.0518 11.4531C57.7958 11.1094 57.6678 10.7031 57.6678 10.2344C57.6678 10.0156 57.7088 9.81771 57.7907 9.64062C57.8828 9.45312 58.0006 9.29688 58.1439 9.17188C58.2873 9.03646 58.4562 8.9375 58.6507 8.875C58.8453 8.80208 59.0449 8.76562 59.2497 8.76562C59.434 8.76562 59.6234 8.79167 59.8179 8.84375C60.0227 8.89583 60.2121 8.98958 60.3861 9.125C60.5704 9.26042 60.7342 9.4375 60.8776 9.65625C61.0209 9.875 61.1387 10.1458 61.2308 10.4688C61.4868 10.5 61.7018 10.526 61.8758 10.5469C62.0601 10.5573 62.2137 10.5677 62.3365 10.5781C62.4594 10.5885 62.5618 10.5938 62.6437 10.5938C62.7256 10.5938 62.8075 10.5938 62.8894 10.5938H64.5327C64.6248 10.5938 64.7579 10.651 64.932 10.7656C65.1163 10.8802 65.2954 11.0312 65.4695 11.2188C65.6436 11.3958 65.7869 11.5885 65.8995 11.7969C66.0224 12.0052 66.0685 12.2031 66.0377 12.3906C66.0377 12.4531 66.0019 12.6042 65.9302 12.8438C65.8586 13.0833 65.7715 13.3854 65.6692 13.75C65.5668 14.1146 65.4541 14.5365 65.3313 15.0156C65.2084 15.4844 65.0958 15.9792 64.9934 16.5C64.891 17.0208 64.804 17.5625 64.7323 18.125C64.6607 18.6771 64.6248 19.2188 64.6248 19.75C64.6248 19.9688 64.6504 20.1823 64.7016 20.3906C64.7528 20.599 64.8296 20.7865 64.932 20.9531C65.0344 21.1094 65.1624 21.2344 65.3159 21.3281C65.4797 21.4219 65.6692 21.4688 65.8842 21.4688C66.2425 21.4688 66.5497 21.3542 66.8056 21.125C67.0616 20.8958 67.2766 20.6094 67.4506 20.2656C67.6247 19.9219 67.7629 19.5521 67.8653 19.1562C67.9779 18.75 68.0701 18.3698 68.1417 18.0156C68.2032 17.6823 68.3055 17.4427 68.4489 17.2969C68.5922 17.1406 68.7407 17.0625 68.8942 17.0625C69.0171 17.0625 69.1451 17.1042 69.2782 17.1875C69.4113 17.2604 69.529 17.3594 69.6314 17.4844C69.744 17.6094 69.8311 17.75 69.8925 17.9062C69.9642 18.0625 70 18.2188 70 18.375C70 18.4271 69.9949 18.4688 69.9846 18.5C69.9744 18.5312 69.9693 18.5625 69.9693 18.5938C69.8259 19.125 69.6365 19.6823 69.4011 20.2656C69.1758 20.849 68.884 21.3854 68.5257 21.875C68.1673 22.3646 67.7373 22.7708 67.2356 23.0938C66.7339 23.4167 66.1452 23.5781 65.4695 23.5781Z" fill="#344A76"/>
</svg>
